<?xml version="1.0" standalone="no"?>
<!DOCTYPE svg PUBLIC "-//W3C//DTD SVG 20010904//EN"
 "http://www.w3.org/TR/2001/REC-SVG-20010904/DTD/svg10.dtd">
<svg version="1.0" xmlns="http://www.w3.org/2000/svg"
 width="128.000000pt" height="128.000000pt" viewBox="0 0 128.000000 128.000000"
 preserveAspectRatio="xMidYMid meet">

<g transform="translate(0.000000,128.000000) scale(0.100000,-0.100000)"
stroke="none" fill="grayColor">
<path d="M0 640 l0 -640 55 0 55 0 0 398 c0 442 2 459 66 591 65 132 199 241
340 275 55 13 42 14 -228 15 l-288 1 0 -640z"/>
<path d="M764 1264 c132 -32 268 -138 334 -262 67 -125 72 -169 72 -609 l0
-393 55 0 55 0 0 640 0 640 -287 -1 c-271 -1 -284 -2 -229 -15z"/>
<path d="M533 1226 c-180 -46 -318 -189 -368 -382 -13 -50 -15 -124 -13 -432
l3 -372 45 22 c30 15 52 36 65 60 11 21 25 38 31 38 6 0 22 -17 35 -37 26 -41
97 -83 139 -83 46 1 107 36 135 79 14 23 30 41 35 41 5 0 21 -18 35 -41 28
-43 89 -79 135 -79 45 0 107 36 136 79 15 23 32 41 38 41 6 0 20 -17 31 -38
13 -24 35 -45 65 -60 l45 -22 3 365 c2 298 -1 378 -13 431 -41 178 -162 319
-320 375 -74 26 -192 33 -262 15z m-22 -482 c16 -15 29 -36 29 -46 0 -22 -28
-24 -37 -3 -6 18 -54 45 -77 45 -8 0 -31 -14 -51 -31 -40 -36 -67 -29 -45 10
34 64 127 77 181 25z m410 0 c29 -28 39 -64 18 -64 -6 0 -27 14 -46 30 -18 17
-41 30 -49 30 -22 0 -57 -20 -72 -42 -17 -23 -42 -23 -42 0 0 19 43 65 70 75
32 13 92 -1 121 -29z m-319 -181 c17 -35 48 -36 65 -3 16 31 37 32 41 2 5 -32
-34 -72 -68 -72 -36 0 -80 36 -80 64 0 44 23 48 42 9z"/>
<path d="M281 71 c-6 -10 -34 -31 -63 -45 l-52 -26 135 1 c99 1 126 3 102 10
-18 5 -49 25 -69 44 -20 19 -38 35 -40 35 -2 0 -8 -9 -13 -19z"/>
<path d="M603 55 c-17 -17 -46 -36 -65 -42 -27 -9 -8 -11 102 -11 111 0 129 2
101 11 -18 6 -49 26 -69 44 -19 18 -35 32 -36 32 -1 -1 -15 -16 -33 -34z"/>
<path d="M942 54 c-19 -19 -48 -38 -65 -43 -24 -7 3 -9 102 -10 l135 -1 -52
26 c-29 14 -57 35 -63 45 -13 24 -17 23 -57 -17z"/>
</g>
</svg>
