<svg xmlns="http://www.w3.org/2000/svg" viewBox="0 0 256 308" fill="none">
  <path
    fill="#FF3E00"
    d="M245.07 41.25c-3.95-5.93-8.72-11.41-14.17-16.27C210.39 6.88 183.51-1.51 155.6.23c-29.7 1.86-56.67 17.4-72.52 41.74-15.32 23.52-19.37 52.17-11.1 78.57l-6.02 3.36C40.6 139.8 25.04 164.1 22.95 190.51c-1.96 24.67 8.22 48.66 27.23 64.18 19.6 16 45.82 21.83 70.16 15.59l40.95-10.5c1.76-.45 3.6-.07 5.04 1.04 1.44 1.1 2.27 2.84 2.27 4.65v27.2c0 7.97 6.48 14.45 14.45 14.45h29.39c7.97 0 14.45-6.48 14.45-14.45v-27.2c0-27.87-12.64-54.25-34.67-72.4-22.02-18.14-50.68-26.31-78.6-22.39l-20.77 2.92c-2.25.32-4.46-.71-5.64-2.65-1.18-1.93-1.02-4.35.41-6.11 2.58-3.15 6.22-5.25 10.23-5.91l50.23-8.18c30.11-4.91 56.43-22.38 70.4-46.73 13.24-23.09 14.57-50.56 3.64-75.34z"
  />
</svg>


