<svg xmlns="http://www.w3.org/2000/svg" viewBox="0 0 410 404" fill="none">
  <path
    fill="url(#a)"
    d="M399.64 59.525c-5.68-22.84-23.5-40.692-46.34-46.38C312.48 2.86 205 2.86 205 2.86S97.52 2.86 56.7 13.145C33.86 18.833 16.04 36.685 10.36 59.525 0 100.39 0 205.43 0 205.43s0 105.05 10.36 145.9c5.68 22.85 23.5 40.7 46.34 46.39C97.52 408 205 408 205 408s107.48 0 148.3-10.28c22.84-5.69 40.66-23.54 46.34-46.39 10.36-40.85 10.36-145.9 10.36-145.9s0-105.04-10.36-145.905Z"
  />
  <path
    fill="#fff"
    d="M163.88 269.28V141.58c0-5.66 6.12-9.2 11.04-6.4l113.78 63.85a7.36 7.36 0 0 1 0 12.8l-113.78 63.85c-4.92 2.8-11.04-.74-11.04-6.4Z"
  />
  <defs>
    <linearGradient id="a" x1="0" x2="410" y1="0" y2="410" gradientUnits="userSpaceOnUse">
      <stop stop-color="#646CFF" />
      <stop offset="1" stop-color="#747BFF" />
    </linearGradient>
  </defs>
</svg>


