<svg xmlns="http://www.w3.org/2000/svg" viewBox="0 0 100 100">
  <!-- Ghost body -->
  <path d="M 30 20 Q 20 20 20 35 L 20 70 Q 20 85 35 85 L 65 85 Q 80 85 80 70 L 80 35 Q 80 20 70 20 Q 70 20 70 30 L 70 35 Q 70 38 68 40 L 68 70 Q 68 78 62 78 L 38 78 Q 32 78 32 70 L 32 40 Q 30 38 30 35 L 30 20 Z" fill="white" stroke="#333" stroke-width="2"/>
  
  <!-- Left eye -->
  <circle cx="40" cy="45" r="5" fill="#333"/>
  
  <!-- Right eye -->
  <circle cx="60" cy="45" r="5" fill="#333"/>
  
  <!-- Mouth -->
  <path d="M 45 60 Q 50 65 55 60" stroke="#333" stroke-width="2" fill="none" stroke-linecap="round"/>
  
  <!-- Wavy bottom -->
  <path d="M 32 78 Q 38 82 44 78 Q 50 74 56 78 Q 62 82 68 78" stroke="white" stroke-width="2" fill="none" stroke-linecap="round" stroke-linejoin="round"/>
</svg>